400.ufo
<glyph name="dollar" format="1">
  <advance width="1221"/>
  <unicode hex="0024"/>
  <outline>
    <contour>
      <point x="147" y="61" type="line"/>
      <point x="147" y="-278" type="line"/>
      <point x="244" y="-278" type="line"/>
      <point x="282" y="61" type="line"/>
    </contour>
    <contour>
      <point x="290" y="1446" type="line"/>
      <point x="290" y="1785" type="line"/>
      <point x="187" y="1785" type="line"/>
      <point x="149" y="1446" type="line"/>
    </contour>
    <component base="S" xOffset="-398.960"/>
  </outline>
</glyph>
<glyph name="one" format="1">
  <advance width="1136"/>
  <unicode hex="0031"/>
  <outline>
    <contour>
      <point x="158" y="0" type="line"/>
      <point x="1064" y="0" type="line"/>
      <point x="1064" y="123" type="line"/>
      <point x="662" y="123" type="line"/>
      <point x="715" y="59" type="line"/>
      <point x="715" y="1456" type="line"/>
      <point x="562" y="1456" type="line"/>
      <point x="486" y="1402"/>
      <point x="254" y="1319"/>
      <point x="171" y="1301" type="curve"/>
      <point x="171" y="1166" type="line"/>
      <point x="254" y="1177"/>
      <point x="486" y="1256"/>
      <point x="586" y="1325" type="curve"/>
      <point x="549" y="1357" type="line"/>
      <point x="549" y="67" type="line"/>
      <point x="599" y="123" type="line"/>
      <point x="158" y="123" type="line"/>
    </contour>
  </outline>
</glyph>
<glyph name="three" format="1">
  <advance width="1164"/>
  <unicode hex="0033"/>
  <outline>
    <contour>
      <point x="565" y="-20" type="curve" smooth="yes"/>
      <point x="867" y="-20"/>
      <point x="1008" y="171"/>
      <point x="1009" y="377" type="curve" smooth="yes"/>
      <point x="1010" y="602"/>
      <point x="883" y="760"/>
      <point x="651" y="779" type="curve"/>
      <point x="651" y="762" type="line"/>
      <point x="853" y="791"/>
      <point x="968" y="913"/>
      <point x="968" y="1088" type="curve"/>
      <point x="973" y="1319"/>
      <point x="827" y="1476"/>
      <point x="562" y="1476" type="curve"/>
      <point x="437" y="1476"/>
      <point x="223" y="1440"/>
      <point x="122" y="1226" type="curve"/>
      <point x="223" y="1150" type="line"/>
      <point x="243" y="1150" type="line"/>
      <point x="325" y="1290"/>
      <point x="428" y="1338"/>
      <point x="564" y="1334" type="curve"/>
      <point x="733" y="1334"/>
      <point x="814" y="1237"/>
      <point x="808" y="1086" type="curve"/>
      <point x="808" y="866"/>
      <point x="599" y="837"/>
      <point x="442" y="837" type="curve" smooth="yes"/>
      <point x="386" y="837" type="line"/>
      <point x="411" y="694" type="line"/>
      <point x="441" y="694" type="line" smooth="yes"/>
      <point x="705" y="694"/>
      <point x="846" y="623"/>
      <point x="847" y="389" type="curve" smooth="yes"/>
      <point x="848" y="206"/>
      <point x="727" y="123"/>
      <point x="565" y="123" type="curve" smooth="yes"/>
      <point x="472" y="123"/>
      <point x="343" y="153"/>
      <point x="261" y="289" type="curve"/>
      <point x="248" y="289" type="line"/>
      <point x="145" y="212" type="line"/>
      <point x="250" y="26"/>
      <point x="427" y="-20"/>
    </contour>
  </outline>
</glyph>
<glyph name="five" format="1">
  <advance width="1136"/>
  <unicode hex="0035"/>
  <outline>
    <contour>
      <point x="221" y="290" type="line"/>
      <point x="122" y="196" type="line"/>
      <point x="179" y="100"/>
      <point x="318" y="-20"/>
      <point x="540" y="-20" type="curve" smooth="yes"/>
      <point x="794" y="-20"/>
      <point x="1015" y="143"/>
      <point x="1015" y="461" type="curve"/>
      <point x="1019" y="793"/>
      <point x="813" y="935"/>
      <point x="626" y="935" type="curve"/>
      <point x="463" y="930"/>
      <point x="390" y="889"/>
      <point x="316" y="773" type="curve"/>
      <point x="344" y="771" type="line"/>
      <point x="405" y="1321" type="line"/>
      <point x="917" y="1321" type="line"/>
      <point x="935" y="1456" type="line"/>
      <point x="264" y="1456" type="line"/>
      <point x="203" y="702" type="line"/>
      <point x="324" y="680" type="line"/>
      <point x="393" y="766"/>
      <point x="498" y="809"/>
      <point x="595" y="809" type="curve" smooth="yes"/>
      <point x="765" y="809"/>
      <point x="857" y="680"/>
      <point x="855" y="454" type="curve" smooth="yes"/>
      <point x="853" y="241"/>
      <point x="721" y="124"/>
      <point x="542" y="124" type="curve" smooth="yes"/>
      <point x="391" y="124"/>
      <point x="317" y="181"/>
      <point x="236" y="290" type="curve"/>
    </contour>
  </outline>
</glyph>
<glyph name="seven" format="1">
  <advance width="1136"/>
  <unicode hex="0037"/>
  <outline>
    <contour>
      <point x="261" y="0" type="line"/>
      <point x="427" y="0" type="line"/>
      <point x="977" y="1336" type="line"/>
      <point x="977" y="1456" type="line"/>
      <point x="84" y="1456" type="line"/>
      <point x="103" y="1319" type="line"/>
      <point x="803" y="1319" type="line"/>
    </contour>
  </outline>
</glyph>
<glyph name="A" format="1">
  <advance width="1391"/>
  <unicode hex="0041"/>
  <outline>
    <contour>
      <point x="597" y="1456" type="line"/>
      <point x="46" y="0" type="line"/>
      <point x="219" y="0" type="line"/>
      <point x="410" y="513" type="line"/>
      <point x="348" y="462" type="line"/>
      <point x="1028" y="462" type="line"/>
      <point x="961" y="508" type="line"/>
      <point x="1151" y="0" type="line"/>
      <point x="1325" y="0" type="line"/>
      <point x="768" y="1456" type="line"/>
    </contour>
    <contour>
      <point x="657" y="1350" type="line"/>
      <point x="957" y="535" type="line"/>
      <point x="997" y="587" type="line"/>
      <point x="382" y="587" type="line"/>
      <point x="415" y="543" type="line"/>
      <point x="709" y="1350" type="line"/>
    </contour>
    <contour>
      <point x="683" y="0" type="move" name="bot"/>
    </contour>
    <contour>
      <point x="1219" y="0" type="move" name="ogonek"/>
    </contour>
    <contour>
      <point x="681" y="1456" type="move" name="top"/>
    </contour>
  </outline>
</glyph>
<glyph name="B" format="1">
  <advance width="1334"/>
  <unicode hex="0042"/>
  <outline>
    <contour>
      <point x="525" y="-10" type="curve" smooth="yes"/>
      <point x="1003" y="-10"/>
      <point x="1203" y="117"/>
      <point x="1203" y="432" type="curve" smooth="yes"/>
      <point x="1203" y="627"/>
      <point x="1102" y="764"/>
      <point x="839" y="804" type="curve"/>
      <point x="839" y="772" type="line"/>
      <point x="1079" y="826"/>
      <point x="1150" y="954"/>
      <point x="1150" y="1099" type="curve" smooth="yes"/>
      <point x="1150" y="1237"/>
      <point x="1145" y="1464"/>
      <point x="595" y="1464" type="curve" smooth="yes"/>
      <point x="481" y="1464"/>
      <point x="344" y="1454"/>
      <point x="179" y="1432" type="curve"/>
      <point x="179" y="7" type="line"/>
      <point x="308" y="-4"/>
      <point x="423" y="-10"/>
    </contour>
    <contour>
      <point x="355" y="90" type="line"/>
      <point x="355" y="776" type="line"/>
      <point x="296" y="723" type="line"/>
      <point x="626" y="723" type="line" smooth="yes"/>
      <point x="908" y="723"/>
      <point x="1029" y="635"/>
      <point x="1029" y="424" type="curve" smooth="yes"/>
      <point x="1029" y="263"/>
      <point x="1001" y="124"/>
      <point x="558" y="124" type="curve" smooth="yes"/>
      <point x="488" y="124"/>
      <point x="407" y="128"/>
      <point x="315" y="135" type="curve"/>
    </contour>
    <contour>
      <point x="355" y="804" type="line"/>
      <point x="355" y="1372" type="line"/>
      <point x="295" y="1315" type="line"/>
      <point x="416" y="1329"/>
      <point x="518" y="1336"/>
      <point x="602" y="1336" type="curve" smooth="yes"/>
      <point x="901" y="1336"/>
      <point x="993" y="1250"/>
      <point x="993" y="1089" type="curve" smooth="yes"/>
      <point x="993" y="886"/>
      <point x="827" y="849"/>
      <point x="637" y="849" type="curve" smooth="yes"/>
      <point x="299" y="849" type="line"/>
    </contour>
    <contour>
      <point x="696" y="0" type="move" name="bot"/>
    </contour>
    <contour>
      <point x="647" y="1456" type="move" name="top"/>
    </contour>
  </outline>
</glyph>
<glyph name="F" format="1">
  <advance width="1192"/>
  <unicode hex="0046"/>
  <outline>
    <contour>
      <point x="192" y="1456" type="line"/>
      <point x="192" y="0" type="line"/>
      <point x="368" y="0" type="line"/>
      <point x="368" y="718" type="line"/>
      <point x="286" y="666" type="line"/>
      <point x="1050" y="666" type="line"/>
      <point x="1050" y="797" type="line"/>
      <point x="293" y="797" type="line"/>
      <point x="368" y="748" type="line"/>
      <point x="368" y="1385" type="line"/>
      <point x="293" y="1318" type="line"/>
      <point x="1145" y="1318" type="line"/>
      <point x="1155" y="1456" type="line"/>
    </contour>
    <contour>
      <point x="725" y="1456" type="move" name="top"/>
    </contour>
  </outline>
</glyph>
<glyph name="H" format="1">
  <advance width="1476"/>
  <unicode hex="0048"/>
  <outline>
    <contour>
      <point x="1111" y="1456" type="line"/>
      <point x="1111" y="780" type="line"/>
      <point x="1161" y="820" type="line"/>
      <point x="297" y="820" type="line"/>
      <point x="362" y="780" type="line"/>
      <point x="362" y="1456" type="line"/>
      <point x="186" y="1456" type="line"/>
      <point x="186" y="0" type="line"/>
      <point x="362" y="0" type="line"/>
      <point x="362" y="723" type="line"/>
      <point x="302" y="678" type="line"/>
      <point x="1162" y="678" type="line"/>
      <point x="1111" y="723" type="line"/>
      <point x="1111" y="0" type="line"/>
      <point x="1287" y="0" type="line"/>
      <point x="1287" y="1456" type="line"/>
    </contour>
    <contour>
      <point x="747" y="1456" type="move" name="top"/>
    </contour>
    <contour>
      <point x="744" y="1206" type="move" name="mid"/>
    </contour>
  </outline>
</glyph>
<glyph name="M" format="1">
  <advance width="1789"/>
  <unicode hex="004D"/>
  <outline>
    <contour>
      <point x="179" y="0" type="line"/>
      <point x="345" y="0" type="line"/>
      <point x="345" y="471" type="line"/>
      <point x="354" y="1314" type="line"/>
      <point x="324" y="1304" type="line"/>
      <point x="820" y="167" type="line"/>
      <point x="971" y="167" type="line"/>
      <point x="1476" y="1303" type="line"/>
      <point x="1440" y="1315" type="line"/>
      <point x="1449" y="474" type="line"/>
      <point x="1449" y="0" type="line"/>
      <point x="1613" y="0" type="line"/>
      <point x="1613" y="472" type="line"/>
      <point x="1589" y="1456" type="line"/>
      <point x="1379" y="1456" type="line"/>
      <point x="875" y="318" type="line"/>
      <point x="919" y="318" type="line"/>
      <point x="419" y="1456" type="line"/>
      <point x="203" y="1456" type="line"/>
      <point x="179" y="472" type="line"/>
    </contour>
    <contour>
      <point x="911" y="1456" type="move" name="top"/>
    </contour>
  </outline>
</glyph>
<glyph name="N" format="1">
  <advance width="1505"/>
  <unicode hex="004E"/>
  <outline>
    <contour>
      <point x="1148" y="1456" type="line"/>
      <point x="1148" y="644" type="line"/>
      <point x="1160" y="155" type="line"/>
      <point x="1191" y="170" type="line"/>
      <point x="383" y="1456" type="line"/>
      <point x="205" y="1456" type="line"/>
      <point x="205" y="0" type="line"/>
      <point x="364" y="0" type="line"/>
      <point x="364" y="761" type="line"/>
      <point x="345" y="1302" type="line"/>
      <point x="307" y="1288" type="line"/>
      <point x="1121" y="0" type="line"/>
      <point x="1306" y="0" type="line"/>
      <point x="1306" y="1456" type="line"/>
    </contour>
    <contour>
      <point x="790" y="1456" type="move" name="top"/>
    </contour>
    <contour>
      <point x="772" y="0" type="move" name="bot"/>
    </contour>
  </outline>
</glyph>
<glyph name="R" format="1">
  <advance width="1306"/>
  <unicode hex="0052"/>
  <outline>
    <contour>
      <point x="186" y="0" type="line"/>
      <point x="362" y="0" type="line"/>
      <point x="362" y="728" type="line"/>
      <point x="312" y="668" type="line"/>
      <point x="754" y="669" type="line"/>
      <point x="693" y="709" type="line"/>
      <point x="1052" y="0" type="line"/>
      <point x="1238" y="0" type="line"/>
      <point x="1238" y="20" type="line"/>
      <point x="874" y="717" type="line"/>
      <point x="851" y="679" type="line"/>
      <point x="1082" y="723"/>
      <point x="1209" y="850"/>
      <point x="1204" y="1086" type="curve" smooth="yes"/>
      <point x="1196" y="1426.18"/>
      <point x="951" y="1518"/>
      <point x="186" y="1432" type="curve"/>
    </contour>
    <contour>
      <point x="362" y="747" type="line"/>
      <point x="362" y="1367" type="line"/>
      <point x="297" y="1316" type="line"/>
      <point x="938" y="1381"/>
      <point x="1040" y="1287"/>
      <point x="1042" y="1077" type="curve" smooth="yes"/>
      <point x="1044" y="875"/>
      <point x="967" y="792"/>
      <point x="621" y="792" type="curve" smooth="yes"/>
      <point x="317" y="792" type="line"/>
    </contour>
    <contour>
      <point x="693" y="0" type="move" name="bot"/>
    </contour>
    <contour>
      <point x="684" y="1456" type="move" name="top"/>
    </contour>
  </outline>
</glyph>
<glyph name="Y" format="1">
  <advance width="1136"/>
  <unicode hex="0059"/>
  <outline>
    <contour>
      <point x="994" y="1456" type="line"/>
      <point x="543" y="608" type="line"/>
      <point x="599" y="608" type="line"/>
      <point x="132" y="1456" type="line"/>
      <point x="-30" y="1456" type="line"/>
      <point x="522" y="441" type="line"/>
      <point x="483" y="568" type="line"/>
      <point x="483" y="0" type="line"/>
      <point x="659" y="0" type="line"/>
      <point x="659" y="566" type="line"/>
      <point x="624" y="443" type="line"/>
      <point x="1168" y="1456" type="line"/>
    </contour>
    <contour>
      <point x="570" y="1456" type="move" name="top"/>
    </contour>
  </outline>
</glyph>
<glyph name="grave" format="1">
  <advance width="795"/>
  <unicode hex="0060"/>
  <outline>
    <contour>
      <point x="442" y="1224" type="line"/>
      <point x="539" y="1224" type="line"/>
      <point x="356" y="1636" type="line"/>
      <point x="185" y="1636" type="line"/>
    </contour>
    <contour>
      <point x="418" y="1082" type="move" name="_top"/>
    </contour>
  </outline>
</glyph>
<glyph name="a" format="1">
  <advance width="1107"/>
  <unicode hex="0061"/>
  <outline>
    <contour>
      <point x="433" y="-20" type="curve" smooth="yes"/>
      <point x="629" y="-29"/>
      <point x="762" y="45"/>
      <point x="861" y="216" type="curve"/>
      <point x="799" y="205" type="line"/>
      <point x="815" y="0" type="line"/>
      <point x="956" y="0" type="line"/>
      <point x="956" y="712" type="line" smooth="yes"/>
      <point x="956" y="1001"/>
      <point x="789" y="1106"/>
      <point x="548" y="1106" type="curve" smooth="yes"/>
      <point x="405" y="1106"/>
      <point x="254" y="1075"/>
      <point x="150" y="1006" type="curve"/>
      <point x="201" y="876" type="line"/>
      <point x="303" y="948"/>
      <point x="445" y="980"/>
      <point x="549" y="980" type="curve" smooth="yes"/>
      <point x="712" y="980"/>
      <point x="792" y="902"/>
      <point x="792" y="722" type="curve" smooth="yes"/>
      <point x="792" y="565" type="line"/>
      <point x="836" y="592" type="line"/>
      <point x="551" y="595" type="line" smooth="yes"/>
      <point x="233" y="598"/>
      <point x="112" y="482"/>
      <point x="112" y="293" type="curve" smooth="yes"/>
      <point x="112" y="92"/>
      <point x="242" y="-11"/>
    </contour>
    <contour>
      <point x="441" y="104" type="curve" smooth="yes"/>
      <point x="348" y="113"/>
      <point x="270" y="167"/>
      <point x="270" y="292" type="curve" smooth="yes"/>
      <point x="270" y="415"/>
      <point x="338" y="483"/>
      <point x="567" y="482" type="curve" smooth="yes"/>
      <point x="822" y="481" type="line"/>
      <point x="792" y="528" type="line"/>
      <point x="792" y="207" type="line"/>
      <point x="809" y="276" type="line"/>
      <point x="733" y="161"/>
      <point x="601" y="89"/>
    </contour>
    <contour>
      <point x="558" y="1083" type="move" name="top"/>
    </contour>
    <contour>
      <point x="895" y="1" type="move" name="ogonek"/>
    </contour>
    <contour>
      <point x="481" y="1" type="move" name="bot"/>
    </contour>
  </outline>
</glyph>
<glyph name="e" format="1">
  <advance width="1109.359"/>
  <unicode hex="0065"/>
  <outline>
    <contour>
      <point x="329" y="1106"/>
      <point x="105" y="899"/>
      <point x="105" y="538" type="curve" smooth="yes"/>
      <point x="105" y="190"/>
      <point x="330" y="-20"/>
      <point x="617" y="-20" type="curve" smooth="yes"/>
      <point x="766" y="-20"/>
      <point x="891" y="24"/>
      <point x="981" y="84" type="curve"/>
      <point x="942" y="197" type="line"/>
      <point x="930" y="197" type="line"/>
      <point x="840" y="146"/>
      <point x="763" y="106"/>
      <point x="638" y="106" type="curve" smooth="yes"/>
      <point x="428" y="106"/>
      <point x="273" y="241"/>
      <point x="272" y="567" type="curve"/>
      <point x="221" y="516" type="line"/>
      <point x="1004" y="516" type="line"/>
      <point x="1004" y="516"/>
      <point x="1011" y="576"/>
      <point x="1012" y="602" type="curve" smooth="yes"/>
      <point x="1021" y="914"/>
      <point x="860" y="1106"/>
      <point x="597" y="1106" type="curve" smooth="yes"/>
    </contour>
    <contour>
      <point x="785" y="977"/>
      <point x="868" y="848"/>
      <point x="871" y="627" type="curve"/>
      <point x="277" y="627" type="line"/>
      <point x="297" y="845"/>
      <point x="426" y="983"/>
      <point x="609" y="980" type="curve" smooth="yes"/>
    </contour>
    <contour>
      <point x="896" y="54" type="move" name="ogonek"/>
    </contour>
    <contour>
      <point x="609" y="1" type="move" name="bot"/>
    </contour>
    <contour>
      <point x="606" y="1082" type="move" name="top"/>
    </contour>
  </outline>
</glyph>
<glyph name="k" format="1">
  <advance width="1079"/>
  <unicode hex="006B"/>
  <outline>
    <contour>
      <point x="156" y="0" type="line"/>
      <point x="320" y="0" type="line"/>
      <point x="320" y="438" type="line"/>
      <point x="291" y="372" type="line"/>
      <point x="475" y="529" type="line"/>
      <point x="423" y="538" type="line"/>
      <point x="869" y="0" type="line"/>
      <point x="1048" y="0" type="line"/>
      <point x="1048" y="24" type="line"/>
      <point x="536" y="621" type="line"/>
      <point x="532" y="556" type="line"/>
      <point x="1014" y="1058" type="line"/>
      <point x="1014" y="1082" type="line"/>
      <point x="825" y="1082" type="line"/>
      <point x="279" y="499" type="line"/>
      <point x="313" y="486" type="line"/>
      <point x="320" y="757" type="line"/>
      <point x="320" y="1560" type="line"/>
      <point x="156" y="1540" type="line"/>
    </contour>
    <contour>
      <point x="575" y="0" type="move" name="bot"/>
    </contour>
  </outline>
</glyph>
<glyph name="r" format="1">
  <advance width="766"/>
  <unicode hex="0072"/>
  <outline>
    <contour>
      <point x="169" y="0" type="line"/>
      <point x="333" y="0" type="line"/>
      <point x="333" y="614" type="line" smooth="yes"/>
      <point x="333" y="803"/>
      <point x="432" y="959"/>
      <point x="657" y="959" type="curve" smooth="yes"/>
      <point x="695" y="959" type="line"/>
      <point x="708" y="1091" type="line"/>
      <point x="685" y="1095"/>
      <point x="664" y="1096"/>
      <point x="634" y="1096" type="curve" smooth="yes"/>
      <point x="496" y="1096"/>
      <point x="373" y="1024"/>
      <point x="298" y="799" type="curve"/>
      <point x="323" y="788" type="line"/>
      <point x="300" y="1082" type="line"/>
      <point x="169" y="1082" type="line"/>
    </contour>
    <contour>
      <point x="282" y="0" type="move" name="bot"/>
    </contour>
    <contour>
      <point x="462" y="1082.4" type="move" name="top"/>
    </contour>
  </outline>
</glyph>
<glyph name="u" format="1">
  <advance width="1192"/>
  <unicode hex="0075"/>
  <outline>
    <contour>
      <point x="867" y="1082" type="line"/>
      <point x="867" y="216" type="line"/>
      <point x="891" y="286" type="line"/>
      <point x="863" y="253"/>
      <point x="780" y="103"/>
      <point x="556" y="103" type="curve" smooth="yes"/>
      <point x="378" y="103"/>
      <point x="314" y="217"/>
      <point x="314" y="403" type="curve" smooth="yes"/>
      <point x="314" y="1082" type="line"/>
      <point x="150" y="1082" type="line"/>
      <point x="150" y="404" type="line" smooth="yes"/>
      <point x="150" y="119"/>
      <point x="284" y="-20"/>
      <point x="541" y="-20" type="curve" smooth="yes"/>
      <point x="744" y="-20"/>
      <point x="865" y="83"/>
      <point x="935" y="217" type="curve"/>
      <point x="875" y="208" type="line"/>
      <point x="889" y="0" type="line"/>
      <point x="1031" y="0" type="line"/>
      <point x="1031" y="1082" type="line"/>
    </contour>
    <contour>
      <point x="955" y="1" type="move" name="ogonek"/>
    </contour>
    <contour>
      <point x="556" y="1" type="move" name="bot"/>
    </contour>
    <contour>
      <point x="613" y="1083" type="move" name="top"/>
    </contour>
  </outline>
</glyph>
<glyph name="w" format="1">
  <advance width="1505"/>
  <unicode hex="0077"/>
  <outline>
    <contour>
      <point x="1317" y="1082" type="line"/>
      <point x="1094" y="169" type="line"/>
      <point x="1128" y="169" type="line"/>
      <point x="832" y="1082" type="line"/>
      <point x="655" y="1082" type="line"/>
      <point x="379" y="168" type="line"/>
      <point x="415" y="168" type="line"/>
      <point x="171" y="1082" type="line"/>
      <point x="16" y="1082" type="line"/>
      <point x="316" y="0" type="line"/>
      <point x="463" y="0" type="line"/>
      <point x="764" y="973" type="line"/>
      <point x="732" y="973" type="line"/>
      <point x="1039" y="0" type="line"/>
      <point x="1186" y="0" type="line"/>
      <point x="1469" y="1082" type="line"/>
    </contour>
    <contour>
      <point x="746" y="1082" type="move" name="top"/>
    </contour>
  </outline>
</glyph>
<glyph name="y" format="1">
  <advance width="1136"/>
  <unicode hex="0079"/>
  <outline>
    <contour>
      <point x="1075" y="1082" type="line"/>
      <point x="912" y="1082" type="line"/>
      <point x="557" y="176" type="line"/>
      <point x="517" y="93" type="line"/>
      <point x="341" y="-377" type="line"/>
      <point x="487" y="-410" type="line"/>
    </contour>
    <contour>
      <point x="621" y="118" type="line"/>
      <point x="220" y="1082" type="line"/>
      <point x="48" y="1082" type="line"/>
      <point x="539" y="-73" type="line"/>
    </contour>
    <contour>
      <point x="585" y="1082" type="move" name="top"/>
    </contour>
  </outline>
</glyph>
<glyph name="paragraph" format="1">
  <advance width="1136"/>
  <unicode hex="00B6"/>
  <outline>
    <contour>
      <point x="529" y="1456" type="line" smooth="yes"/>
      <point x="209" y="1456"/>
      <point x="116" y="1276"/>
      <point x="116" y="1117" type="curve" smooth="yes"/>
      <point x="116" y="942"/>
      <point x="217" y="771"/>
      <point x="498" y="771" type="curve"/>
      <point x="498" y="-20" type="line"/>
      <point x="622" y="-20" type="line"/>
      <point x="622" y="1334" type="line"/>
      <point x="798" y="1334" type="line"/>
      <point x="798" y="-20" type="line"/>
      <point x="922" y="-20" type="line"/>
      <point x="922" y="1334" type="line"/>
      <point x="1038" y="1334" type="line"/>
      <point x="1038" y="1456" type="line"/>
    </contour>
  </outline>
</glyph>
<glyph name="ae" format="1">
  <advance width="1647"/>
  <unicode hex="00E6"/>
  <outline>
    <contour>
      <point x="941" y="1106"/>
      <point x="748" y="907"/>
      <point x="748" y="546" type="curve" smooth="yes"/>
      <point x="748" y="198"/>
      <point x="939" y="-20"/>
      <point x="1226" y="-20" type="curve" smooth="yes"/>
      <point x="1375" y="-20"/>
      <point x="1500" y="24"/>
      <point x="1590" y="84" type="curve"/>
      <point x="1551" y="197" type="line"/>
      <point x="1539" y="197" type="line"/>
      <point x="1449" y="146"/>
      <point x="1372" y="106"/>
      <point x="1247" y="106" type="curve" smooth="yes"/>
      <point x="1037" y="106"/>
      <point x="895" y="220"/>
      <point x="894" y="546" type="curve"/>
      <point x="855" y="490" type="line"/>
      <point x="929" y="482"/>
      <point x="1099" y="475"/>
      <point x="1161" y="475" type="curve" smooth="yes"/>
      <point x="1536" y="475"/>
      <point x="1583" y="652"/>
      <point x="1579" y="797" type="curve" smooth="yes"/>
      <point x="1574" y="968"/>
      <point x="1439" y="1106"/>
      <point x="1209" y="1106" type="curve"/>
    </contour>
    <contour>
      <point x="737" y="365" type="line" smooth="yes"/>
      <point x="733" y="193"/>
      <point x="606" y="102"/>
      <point x="433" y="102" type="curve" smooth="yes"/>
      <point x="419" y="102"/>
      <point x="405" y="103"/>
      <point x="390" y="104" type="curve" smooth="yes"/>
      <point x="297" y="112"/>
      <point x="219" y="167"/>
      <point x="219" y="292" type="curve" smooth="yes"/>
      <point x="219" y="415"/>
      <point x="261" y="513"/>
      <point x="491" y="513" type="curve" smooth="yes"/>
      <point x="546" y="513"/>
      <point x="709" y="505"/>
      <point x="786" y="492" type="curve"/>
      <point x="741" y="546" type="line"/>
    </contour>
    <contour>
      <point x="290" y="1106"/>
      <point x="155" y="1015"/>
      <point x="99" y="869" type="curve"/>
      <point x="207" y="804" type="line"/>
      <point x="217" y="805" type="line"/>
      <point x="280" y="946"/>
      <point x="373" y="980"/>
      <point x="507" y="980" type="curve" smooth="yes"/>
      <point x="670" y="980"/>
      <point x="741" y="912"/>
      <point x="741" y="722" type="curve" smooth="yes"/>
      <point x="741" y="580" type="line"/>
      <point x="785" y="607" type="line"/>
      <point x="699" y="620"/>
      <point x="536" y="626"/>
      <point x="475" y="626" type="curve" smooth="yes"/>
      <point x="156" y="626"/>
      <point x="61" y="482"/>
      <point x="61" y="293" type="curve" smooth="yes"/>
      <point x="61" y="92"/>
      <point x="191" y="-11"/>
      <point x="382" y="-20" type="curve" smooth="yes"/>
      <point x="391" y="-20"/>
      <point x="400" y="-21"/>
      <point x="409" y="-21" type="curve" smooth="yes"/>
      <point x="614" y="-21"/>
      <point x="792" y="84"/>
      <point x="850" y="277" type="curve" smooth="yes"/>
      <point x="878" y="370" type="line"/>
      <point x="888" y="678" type="line" smooth="yes"/>
      <point x="888" y="687"/>
      <point x="888" y="697"/>
      <point x="888" y="706" type="curve" smooth="yes"/>
      <point x="888" y="976"/>
      <point x="758" y="1106"/>
      <point x="497" y="1106" type="curve" smooth="yes"/>
    </contour>
    <contour>
      <point x="1347" y="980"/>
      <point x="1416" y="895"/>
      <point x="1422" y="805" type="curve" smooth="yes"/>
      <point x="1429" y="705"/>
      <point x="1423" y="593"/>
      <point x="1153" y="593" type="curve" smooth="yes"/>
      <point x="1094" y="593"/>
      <point x="925" y="600"/>
      <point x="851" y="610" type="curve"/>
      <point x="896" y="564" type="line"/>
      <point x="903" y="845"/>
      <point x="1011" y="980"/>
      <point x="1212" y="980" type="curve"/>
    </contour>
    <contour>
      <point x="888" y="1085" type="move" name="top"/>
    </contour>
  </outline>
</glyph>
<glyph name="eng" format="1">
  <advance width="1192"/>
  <unicode hex="014B"/>
  <outline>
    <contour>
      <point x="875" y="-201"/>
      <point x="834" y="-294"/>
      <point x="475" y="-294" type="curve"/>
      <point x="453" y="-294" type="line"/>
      <point x="453" y="-427" type="line"/>
      <point x="865" y="-427"/>
      <point x="1039" y="-331"/>
      <point x="1039" y="0" type="curve"/>
      <point x="875" y="10" type="line"/>
    </contour>
    <component base="n"/>
  </outline>
</glyph>
<glyph name="apostrophemod" format="1">
  <advance width="600"/>
  <unicode hex="02BC"/>
  <outline>
    <contour>
      <point x="228" y="1239" type="curve"/>
      <point x="325" y="1239" type="line"/>
      <point x="325" y="1239"/>
      <point x="442" y="1692"/>
      <point x="442" y="1763" type="curve"/>
      <point x="269" y="1763" type="line"/>
      <point x="269" y="1688"/>
      <point x="228" y="1239"/>
    </contour>
    <contour>
      <point x="30" y="1082" type="move" name="_top"/>
    </contour>
  </outline>
</glyph>
<glyph name="circumflex" format="1">
  <advance width="937"/>
  <unicode hex="02C6"/>
  <outline>
    <contour>
      <point x="252" y="1166" type="line"/>
      <point x="363" y="1166" type="line"/>
      <point x="561" y="1376" type="line"/>
      <point x="755" y="1166" type="line"/>
      <point x="867" y="1166" type="line"/>
      <point x="659" y="1467" type="line"/>
      <point x="472" y="1467" type="line"/>
    </contour>
    <contour>
      <point x="561" y="1004.05" type="move" name="_top"/>
    </contour>
  </outline>
</glyph>
<glyph name="caron" format="1">
  <advance width="965"/>
  <unicode hex="02C7"/>
  <outline>
    <contour>
      <point x="404" y="1211" type="line"/>
      <point x="589" y="1211" type="line"/>
      <point x="834" y="1545" type="line"/>
      <point x="715" y="1545" type="line"/>
      <point x="494" y="1309" type="line"/>
      <point x="290" y="1545" type="line"/>
      <point x="172" y="1545" type="line"/>
    </contour>
    <contour>
      <point x="494" y="1082" type="move" name="_top"/>
    </contour>
  </outline>
</glyph>
<glyph name="uni02C9" format="1">
  <advance width="600"/>
  <unicode hex="02C9"/>
  <outline>
    <contour>
      <point x="7" y="1271" type="line"/>
      <point x="592" y="1271" type="line"/>
      <point x="592" y="1393" type="line"/>
      <point x="7" y="1393" type="line"/>
    </contour>
    <contour>
      <point x="271" y="1329" type="move" name="_mid"/>
    </contour>
    <contour>
      <point x="302" y="1082" type="move" name="_top"/>
    </contour>
  </outline>
</glyph>
<glyph name="breve" format="1">
  <advance width="823"/>
  <unicode hex="02D8"/>
  <outline>
    <contour>
      <point x="483" y="1117" type="curve" smooth="yes"/>
      <point x="608" y="1117"/>
      <point x="718" y="1186"/>
      <point x="718" y="1356" type="curve"/>
      <point x="616" y="1356" type="line"/>
      <point x="616" y="1256"/>
      <point x="551" y="1217"/>
      <point x="483" y="1217" type="curve" smooth="yes"/>
      <point x="415" y="1217"/>
      <point x="354" y="1256"/>
      <point x="354" y="1356" type="curve"/>
      <point x="252" y="1356" type="line"/>
      <point x="252" y="1186"/>
      <point x="359" y="1117"/>
    </contour>
    <contour>
      <point x="485" y="1005.28" type="move" name="_top"/>
    </contour>
  </outline>
</glyph>
<glyph name="ogonek" format="1">
  <advance width="766"/>
  <unicode hex="02DB"/>
  <outline>
    <contour>
      <point x="441" y="-410" type="curve" smooth="yes"/>
      <point x="490" y="-410"/>
      <point x="553" y="-396"/>
      <point x="585" y="-380" type="curve"/>
      <point x="583" y="-277" type="line"/>
      <point x="564" y="-285"/>
      <point x="517" y="-301"/>
      <point x="475" y="-301" type="curve" smooth="yes"/>
      <point x="430" y="-301"/>
      <point x="392" y="-278"/>
      <point x="392" y="-220" type="curve" smooth="yes"/>
      <point x="392" y="-142"/>
      <point x="479" y="-29"/>
      <point x="538" y="14" type="curve"/>
      <point x="458" y="14" type="line"/>
      <point x="354" y="-28"/>
      <point x="252" y="-146"/>
      <point x="252" y="-260" type="curve" smooth="yes"/>
      <point x="252" y="-351"/>
      <point x="316" y="-410"/>
    </contour>
    <contour>
      <point x="493" y="10.25" type="move" name="_ogonek"/>
    </contour>
  </outline>
</glyph>
<glyph name="tilde" format="1">
  <advance width="908"/>
  <unicode hex="02DC"/>
  <outline>
    <contour>
      <point x="172" y="1261" type="curve"/>
      <point x="256" y="1261" type="line"/>
      <point x="264" y="1332"/>
      <point x="289" y="1360"/>
      <point x="324" y="1360" type="curve" smooth="yes"/>
      <point x="396" y="1360"/>
      <point x="515" y="1261"/>
      <point x="619" y="1261" type="curve" smooth="yes"/>
      <point x="700" y="1261"/>
      <point x="759" y="1325"/>
      <point x="759" y="1465" type="curve"/>
      <point x="673" y="1465" type="line"/>
      <point x="665" y="1398"/>
      <point x="644" y="1378"/>
      <point x="613" y="1378" type="curve" smooth="yes"/>
      <point x="551" y="1378"/>
      <point x="447" y="1466"/>
      <point x="330" y="1466" type="curve" smooth="yes"/>
      <point x="236" y="1466"/>
      <point x="172" y="1402"/>
    </contour>
    <contour>
      <point x="482" y="1082" type="move" name="_top"/>
    </contour>
  </outline>
</glyph>
<glyph name="hungarumlaut" format="1">
  <advance width="880"/>
  <unicode hex="02DD"/>
  <outline>
    <contour>
      <point x="201" y="1195" type="line"/>
      <point x="285" y="1195" type="line"/>
      <point x="527" y="1607" type="line"/>
      <point x="351" y="1607" type="line"/>
    </contour>
    <contour>
      <point x="457" y="1195" type="line"/>
      <point x="543" y="1195" type="line"/>
      <point x="826" y="1607" type="line"/>
      <point x="638" y="1607" type="line"/>
    </contour>
    <contour>
      <point x="355" y="1082" type="move" name="_top"/>
    </contour>
  </outline>
</glyph>
<glyph name="uni0307" format="1">
  <advance width="596"/>
  <unicode hex="0307"/>
  <outline>
    <contour>
      <point x="252" y="1164" type="line"/>
      <point x="403" y="1164" type="line"/>
      <point x="403" y="1355" type="line"/>
      <point x="252" y="1355" type="line"/>
    </contour>
    <contour>
      <point x="322" y="1004.1" type="move" name="_top"/>
    </contour>
  </outline>
</glyph>
<glyph name="dblgravecomb" format="1">
  <advance width="600"/>
  <unicode hex="030F"/>
  <outline>
    <contour>
      <point x="227" y="1195" type="line"/>
      <point x="332" y="1195" type="line"/>
      <point x="154" y="1607" type="line"/>
      <point x="-9" y="1607" type="line"/>
    </contour>
    <contour>
      <point x="442" y="1195" type="line"/>
      <point x="535" y="1195" type="line"/>
      <point x="422" y="1607" type="line"/>
      <point x="264" y="1607" type="line"/>
    </contour>
    <contour>
      <point x="405" y="1082" type="move" name="_top"/>
    </contour>
  </outline>
</glyph>
<glyph name="breveinvertedcomb" format="1">
  <advance width="880"/>
  <unicode hex="0311"/>
  <outline>
    <contour>
      <point x="201" y="1058" type="curve"/>
      <point x="301" y="1058" type="line"/>
      <point x="301" y="1157"/>
      <point x="357" y="1205"/>
      <point x="431" y="1205" type="curve" smooth="yes"/>
      <point x="504" y="1205"/>
      <point x="563" y="1157"/>
      <point x="563" y="1058" type="curve"/>
      <point x="666" y="1058" type="line"/>
      <point x="666" y="1229"/>
      <point x="545" y="1301"/>
      <point x="430" y="1301" type="curve" smooth="yes"/>
      <point x="316" y="1301"/>
      <point x="201" y="1230"/>
    </contour>
    <contour>
      <point x="432" y="945.25" type="move" name="_top"/>
    </contour>
  </outline>
</glyph>
<glyph name="uni0326" format="1">
  <advance width="653"/>
  <unicode hex="0326"/>
  <outline>
    <contour>
      <point x="252" y="-609" type="curve"/>
      <point x="349" y="-609" type="line"/>
      <point x="349" y="-609"/>
      <point x="466" y="-156"/>
      <point x="466" y="-126" type="curve" smooth="yes"/>
      <point x="466" y="-85" type="line"/>
      <point x="293" y="-85" type="line"/>
      <point x="293" y="-160"/>
      <point x="252" y="-609"/>
    </contour>
    <contour>
      <point x="384" y="0" type="move" name="_bot"/>
    </contour>
  </outline>
</glyph>
<glyph name="quoteleft" format="1">
  <advance width="653"/>
  <unicode hex="2018"/>
  <outline>
    <contour>
      <point x="194" y="948" type="line"/>
      <point x="388" y="948" type="line"/>
      <point x="491" y="1473" type="line"/>
      <point x="376" y="1473" type="line"/>
    </contour>
    <contour>
      <point x="430" y="1544.55" type="move" name="_bot"/>
    </contour>
  </outline>
</glyph>
<glyph name="quotedblleft" format="1">
  <advance width="937"/>
  <unicode hex="201C"/>
  <outline>
    <contour>
      <point x="164" y="951" type="line"/>
      <point x="358" y="951" type="line"/>
      <point x="461" y="1476" type="line"/>
      <point x="346" y="1476" type="line"/>
    </contour>
    <contour>
      <point x="474" y="951" type="line"/>
      <point x="668" y="951" type="line"/>
      <point x="771" y="1476" type="line"/>
      <point x="656" y="1476" type="line"/>
    </contour>
    <component base="quotedblright" xOffset="13894.500" yOffset="2408"/>
  </outline>
</glyph>
<glyph name="uni2215" format="1">
  <advance width="861"/>
  <unicode hex="2215"/>
  <outline>
    <contour>
      <point x="661" y="1456" type="line"/>
      <point x="52" y="0" type="line"/>
      <point x="196" y="0" type="line"/>
      <point x="809" y="1456" type="line"/>
    </contour>
  </outline>
</glyph>
<glyph name="lessequal" format="1">
  <advance width="1192"/>
  <unicode hex="2264"/>
  <outline>
    <contour>
      <point x="147" y="798" type="line"/>
      <point x="147" y="718" type="line"/>
      <point x="1032" y="236" type="line"/>
      <point x="1032" y="373" type="line"/>
      <point x="322" y="758" type="line"/>
      <point x="1028" y="1169" type="line"/>
      <point x="1028" y="1309" type="line"/>
    </contour>
    <contour>
      <point x="128" y="134" type="line"/>
      <point x="128" y="8" type="line"/>
      <point x="1062" y="8" type="line"/>
      <point x="1062" y="133" type="line"/>
    </contour>
  </outline>
</glyph>
<glyph name="caron.alt" format="1">
  <advance width="600"/>
  <outline>
    <contour>
      <point x="229" y="1211" type="line"/>
      <point x="348" y="1211" type="line"/>
      <point x="499" y="1568" type="line"/>
      <point x="314" y="1568" type="line"/>
    </contour>
    <contour>
      <point x="93" y="1082" type="move" name="_caron.alt"/>
    </contour>
    <contour>
      <point x="323" y="1082" type="move" name="_top"/>
    </contour>
  </outline>
</glyph>
<glyph name="commaaccent" format="1">
  <advance width="624"/>
  <outline>
    <contour>
      <point x="214" y="-160" type="line"/>
      <point x="331" y="-160" type="line"/>
      <point x="428" y="234" type="line"/>
      <point x="235" y="234" type="line"/>
    </contour>
    <contour>
      <point x="318" y="383.425" type="move" name="_bot"/>
    </contour>
  </outline>
</glyph>
<glyph name="dblgravecmb" format="1">
  <advance width="600"/>
  <outline>
    <contour>
      <point x="267" y="1058" type="line"/>
      <point x="372" y="1058" type="line"/>
      <point x="194" y="1470" type="line"/>
      <point x="31" y="1470" type="line"/>
    </contour>
    <contour>
      <point x="482" y="1058" type="line"/>
      <point x="575" y="1058" type="line"/>
      <point x="462" y="1470" type="line"/>
      <point x="304" y="1470" type="line"/>
    </contour>
    <contour>
      <point x="445" y="945" type="move" name="_top"/>
    </contour>
  </outline>
</glyph>
<glyph name="dotlessj" format="1">
  <advance width="584"/>
  <outline>
    <contour>
      <point x="246" y="1082" type="line"/>
      <point x="246" y="21" type="line" smooth="yes"/>
      <point x="246" y="-169"/>
      <point x="243" y="-205"/>
      <point x="94" y="-235" type="curve" smooth="yes"/>
      <point x="32" y="-247" type="line"/>
      <point x="51" y="-378" type="line"/>
      <point x="110" y="-371" type="line" smooth="yes"/>
      <point x="330" y="-344"/>
      <point x="410" y="-269"/>
      <point x="410" y="-10" type="curve" smooth="yes"/>
      <point x="410" y="1082" type="line"/>
    </contour>
    <contour>
      <point x="333" y="1082" type="move" name="top"/>
    </contour>
  </outline>
</glyph>
